<?xml version="1.0" encoding="utf-8"?>
<!-- Generator: Adobe Illustrator 16.0.4, SVG Export Plug-In . SVG Version: 6.00 Build 0)  -->
<!DOCTYPE svg PUBLIC "-//W3C//DTD SVG 1.1//EN" "http://www.w3.org/Graphics/SVG/1.1/DTD/svg11.dtd">
<svg version="1.1" id="Layer_1" xmlns="http://www.w3.org/2000/svg" xmlns:xlink="http://www.w3.org/1999/xlink" x="0px" y="0px"
	 width="81.702px" height="40.365px" viewBox="0 0 81.702 40.365" enable-background="new 0 0 81.702 40.365" xml:space="preserve">
<g>
	<path fill="#FFFFFF" d="M2.883,40.365h46.132c1.592,0,2.883-1.291,2.883-2.884V2.884C51.897,1.291,50.606,0,49.015,0H2.883
		C1.291,0,0,1.291,0,2.884v34.598C0,39.074,1.291,40.365,2.883,40.365z"/>
	<path fill="#FFFFFF" d="M61.52,28.832L61.52,28.832c1.593,0,2.884-1.291,2.884-2.883V14.416c0-1.592-1.291-2.883-2.884-2.883l0,0
		c-1.592,0-2.883,1.291-2.883,2.883v11.533C58.637,27.541,59.928,28.832,61.52,28.832z"/>
	<path fill="#FFFFFF" d="M70.17,8.65v23.065c0,1.592,1.291,2.883,2.883,2.883h5.767c1.592,0,2.883-1.291,2.883-2.883V8.65
		c0-1.593-1.291-2.884-2.883-2.884h-5.767C71.461,5.767,70.17,7.058,70.17,8.65z"/>
</g>
</svg>
