<?xml version="1.0" encoding="utf-8"?>
<!-- Generator: Adobe Illustrator 16.0.4, SVG Export Plug-In . SVG Version: 6.00 Build 0)  -->
<!DOCTYPE svg PUBLIC "-//W3C//DTD SVG 1.1//EN" "http://www.w3.org/Graphics/SVG/1.1/DTD/svg11.dtd">
<svg version="1.1" id="Layer_1" xmlns="http://www.w3.org/2000/svg" xmlns:xlink="http://www.w3.org/1999/xlink" x="0px" y="0px"
	 width="81.702px" height="81.702px" viewBox="0 0 81.702 81.702" enable-background="new 0 0 81.702 81.702" xml:space="preserve">
<g>
	<path fill="#FFFFFF" d="M40.852,0C18.29,0,0,18.289,0,40.851s18.29,40.852,40.852,40.852s40.851-18.29,40.851-40.852
		S63.413,0,40.852,0z M40.852,78.979c-21.023,0-38.128-17.104-38.128-38.128S19.828,2.723,40.852,2.723s38.127,17.104,38.127,38.128
		S61.875,78.979,40.852,78.979z"/>
	<path fill="#FFFFFF" d="M40.852,10.213c-16.922,0-30.639,13.717-30.639,30.638S23.93,71.489,40.852,71.489
		c16.921,0,30.638-13.718,30.638-30.639S57.772,10.213,40.852,10.213z M40.852,63.318c-12.39,0-22.469-10.079-22.469-22.468
		s10.079-22.468,22.469-22.468c12.389,0,22.468,10.079,22.468,22.468S53.24,63.318,40.852,63.318z"/>
	<circle fill="#FFFFFF" cx="40.852" cy="40.851" r="13.617"/>
</g>
</svg>
